# xmcd
#
# Track frame offsets:
# 150
# 28151
# 56113
# 97274
# 124556
# 145837
# 175398
# 186719
# 211401
# 238603
# 281725
# 304272
# 333582
#
# Disc length: 4717 seconds
#
# Revision: 1
# Processed by: cddbd v1.4PL0 Copyright (c) Steve Scherf et al.
# Submitted via: Easy CD Ripper 1.45
#
DISCID=d3126b0d
DTITLE=陈升 - 五十米深蓝
DYEAR=2001
DGENRE=Pop
TTITLE0=陈升 - 一个人去旅行
TTITLE1=陈升 - 绿树和知了
TTITLE2=陈升 - 漫游2002
TTITLE3=陈升 - 五十米深蓝
TTITLE4=陈升 - 柴鱼
TTITLE5=陈升 - 活该你是单身汉
TTITLE6=陈升 - 大头日记
TTITLE7=陈升 - 热浪T恤
TTITLE8=陈升 - 小南门
TTITLE9=陈升 - 爸爸的年代
TTITLE10=陈升 - 思念日之屋
TTITLE11=陈升 - 小雪
TTITLE12=陈升 - 把悲伤留给自己
EXTD=
EXTT0=
EXTT1=
EXTT2=
EXTT3=年代电视台“皇上对不起”片头曲
EXTT4=
EXTT5=
EXTT6=
EXTT7=
EXTT8=
EXTT9=
EXTT10=
EXTT11=
EXTT12=
PLAYORDER=
